<?xml version="1.0" encoding="UTF-8"?>
<svg width="310px" height="225px" viewBox="0 0 310 225" version="1.1" xmlns="http://www.w3.org/2000/svg" xmlns:xlink="http://www.w3.org/1999/xlink">
    <!-- Generator: Sketch 40.1 (33804) - http://www.bohemiancoding.com/sketch -->
    <title>cup</title>
    <desc>Created with Sketch.</desc>
    <defs></defs>
    <g id="Page-1" stroke="none" stroke-width="1" fill="none" fill-rule="evenodd">
        <g id="cup" transform="translate(0.000000, -1.000000)" fill="#FDCF1A">
            <polygon id="Fill-79" points="85.1075697 29.0645161 57.0318725 29.0645161 57.0318725 57.1290323 57.0318725 85.1935484 85.1075697 85.1935484 85.1075697 57.1290323"></polygon>
            <polygon id="Fill-80" points="57.0328084 29.0657634 57.0328084 57.1302796 57.0328084 85.1947957 85.1085056 85.1947957 85.1085056 57.1302796 85.1085056 29.0657634"></polygon>
            <polygon id="Fill-81" points="85.1075697 113.258065 113.183267 113.258065 113.183267 85.1935484 85.1075697 85.1935484"></polygon>
            <polygon id="Fill-82" points="85.1075697 113.258065 113.183267 113.258065 113.183267 85.1935484 85.1075697 85.1935484"></polygon>
            <polygon id="Fill-83" points="113.183267 141.322581 141.258964 141.322581 141.258964 113.258065 113.183267 113.258065"></polygon>
            <polygon id="Fill-84" points="113.183267 141.322581 141.258964 141.322581 141.258964 113.258065 113.183267 113.258065"></polygon>
            <polygon id="Fill-85" points="253.561753 29.0645161 225.486056 29.0645161 225.486056 57.1290323 225.486056 85.1935484 253.561753 85.1935484 253.561753 57.1290323"></polygon>
            <polygon id="Fill-86" points="225.486992 29.0657634 225.486992 57.1302796 225.486992 85.1947957 253.562689 85.1947957 253.562689 57.1302796 253.562689 29.0657634"></polygon>
            <polygon id="Fill-87" points="197.410359 113.258065 225.486056 113.258065 225.486056 85.1935484 197.410359 85.1935484"></polygon>
            <polygon id="Fill-89" points="169.334661 141.322581 197.410359 141.322581 197.410359 113.258065 169.334661 113.258065"></polygon>
            <polygon id="Fill-91" points="141.258964 169.387097 113.183267 169.387097 113.183267 197.451613 85.1075697 197.451613 85.1075697 225.516129 225.486056 225.516129 225.486056 197.451613 197.410359 197.451613 197.410359 169.387097 169.334661 169.387097 169.334661 141.322581 141.258964 141.322581"></polygon>
            <polygon id="Fill-93" points="253.561753 113.258065 281.63745 113.258065 281.63745 85.1935484 253.561753 85.1935484"></polygon>
            <polygon id="Fill-94" points="253.561753 113.258065 281.63745 113.258065 281.63745 85.1935484 253.561753 85.1935484"></polygon>
            <polygon id="Fill-95" points="281.63745 29.0645161 281.63745 57.1290323 281.63745 85.1935484 309.713147 85.1935484 309.713147 57.1290323 309.713147 29.0645161"></polygon>
            <polygon id="Fill-96" points="281.638386 29.0657634 281.638386 57.1302796 281.638386 85.1947957 309.714083 85.1947957 309.714083 57.1302796 309.714083 29.0657634"></polygon>
            <polygon id="Fill-97" points="253.561753 29.0676344 281.63745 29.0676344 281.63745 1.00311828 253.561753 1.00311828"></polygon>
            <polygon id="Fill-98" points="253.561753 29.0676344 281.63745 29.0676344 281.63745 1.00311828 253.561753 1.00311828"></polygon>
            <polygon id="Fill-99" points="28.9561753 29.0676344 57.0318725 29.0676344 57.0318725 1.00311828 28.9561753 1.00311828"></polygon>
            <polygon id="Fill-100" points="28.9561753 29.0676344 57.0318725 29.0676344 57.0318725 1.00311828 28.9561753 1.00311828"></polygon>
            <polygon id="Fill-101" points="28.9561753 29.0645161 0.880478088 29.0645161 0.880478088 57.1290323 0.880478088 85.1935484 28.9561753 85.1935484 28.9561753 57.1290323"></polygon>
            <polygon id="Fill-102" points="0.881413944 29.0657634 0.881413944 57.1302796 0.881413944 85.1947957 28.9571112 85.1947957 28.9571112 57.1302796 28.9571112 29.0657634"></polygon>
            <polygon id="Fill-103" points="28.9561753 113.258065 57.0318725 113.258065 57.0318725 85.1935484 28.9561753 85.1935484"></polygon>
            <polygon id="Fill-104" points="28.9561753 113.258065 57.0318725 113.258065 57.0318725 85.1935484 28.9561753 85.1935484"></polygon>
            <polygon id="Fill-105" points="85.1081936 0.999064516 85.1081936 29.0635806 113.183891 29.0635806 141.259588 29.0635806 169.335285 29.0635806 197.410982 29.0635806 225.48668 29.0635806 225.48668 0.999064516"></polygon>
            <polygon id="Fill-106" points="197.410982 1.00187097 169.335285 1.00187097 141.259588 1.00187097 113.183891 1.00187097 85.1081936 1.00187097 85.1081936 29.0663871 113.183891 29.0663871 141.259588 29.0663871 169.335285 29.0663871 197.410982 29.0663871 225.48668 29.0663871 225.48668 1.00187097"></polygon>
        </g>
    </g>
</svg>