<?xml version="1.0" encoding="UTF-8"?>
<svg width="253px" height="225px" viewBox="0 0 253 225" version="1.1" xmlns="http://www.w3.org/2000/svg" xmlns:xlink="http://www.w3.org/1999/xlink">
    <!-- Generator: Sketch 40.1 (33804) - http://www.bohemiancoding.com/sketch -->
    <title>heart</title>
    <desc>Created with Sketch.</desc>
    <defs></defs>
    <g id="Page-1" stroke="none" stroke-width="1" fill="none" fill-rule="evenodd">
        <g id="heart" fill="#FDCF1A">
            <polygon id="Fill-107" points="84.5458167 196.451613 112.621514 196.451613 112.621514 168.387097 84.5458167 168.387097"></polygon>
            <polygon id="Fill-108" points="84.5458167 196.451613 112.621514 196.451613 112.621514 168.387097 84.5458167 168.387097"></polygon>
            <polygon id="Fill-109" points="56.4701195 168.387097 84.5458167 168.387097 84.5458167 140.322581 56.4701195 140.322581"></polygon>
            <polygon id="Fill-110" points="56.4701195 168.387097 84.5458167 168.387097 84.5458167 140.322581 56.4701195 140.322581"></polygon>
            <polygon id="Fill-111" points="28.3944223 140.322581 56.4701195 140.322581 56.4701195 112.258065 28.3944223 112.258065"></polygon>
            <polygon id="Fill-112" points="28.3944223 140.322581 56.4701195 140.322581 56.4701195 112.258065 28.3944223 112.258065"></polygon>
            <polygon id="Fill-113" points="28.3944223 56.1290323 0.3187251 56.1290323 0.3187251 84.1935484 0.3187251 112.258065 28.3944223 112.258065 28.3944223 84.1935484"></polygon>
            <polygon id="Fill-114" points="0.319660956 56.1302796 0.319660956 84.1947957 0.319660956 112.259312 28.3953582 112.259312 28.3953582 84.1947957 28.3953582 56.1302796"></polygon>
            <polygon id="Fill-115" points="28.3944223 56.1290323 56.4701195 56.1290323 56.4701195 28.0645161 28.3944223 28.0645161"></polygon>
            <polygon id="Fill-116" points="28.3944223 56.1290323 56.4701195 56.1290323 56.4701195 28.0645161 28.3944223 28.0645161"></polygon>
            <polygon id="Fill-117" points="56.4701195 28.0676344 84.5458167 28.0676344 84.5458167 0.00311827957 56.4701195 0.00311827957"></polygon>
            <polygon id="Fill-118" points="56.4701195 28.0676344 84.5458167 28.0676344 84.5458167 0.00311827957 56.4701195 0.00311827957"></polygon>
            <polygon id="Fill-119" points="84.5458167 56.1290323 112.621514 56.1290323 112.621514 28.0645161 84.5458167 28.0645161"></polygon>
            <polygon id="Fill-120" points="84.5458167 56.1290323 112.621514 56.1290323 112.621514 28.0645161 84.5458167 28.0645161"></polygon>
            <polygon id="Fill-121" points="112.621514 84.1935484 140.697211 84.1935484 140.697211 56.1290323 112.621514 56.1290323"></polygon>
            <polygon id="Fill-122" points="112.621514 84.1935484 140.697211 84.1935484 140.697211 56.1290323 112.621514 56.1290323"></polygon>
            <polygon id="Fill-123" points="140.697211 56.1290323 168.772908 56.1290323 168.772908 28.0645161 140.697211 28.0645161"></polygon>
            <polygon id="Fill-124" points="140.697211 56.1290323 168.772908 56.1290323 168.772908 28.0645161 140.697211 28.0645161"></polygon>
            <polygon id="Fill-125" points="168.772908 28.0676344 196.848606 28.0676344 196.848606 0.00311827957 168.772908 0.00311827957"></polygon>
            <polygon id="Fill-126" points="168.772908 28.0676344 196.848606 28.0676344 196.848606 0.00311827957 168.772908 0.00311827957"></polygon>
            <polygon id="Fill-127" points="196.848606 56.1290323 224.924303 56.1290323 224.924303 28.0645161 196.848606 28.0645161"></polygon>
            <polygon id="Fill-128" points="196.848606 56.1290323 224.924303 56.1290323 224.924303 28.0645161 196.848606 28.0645161"></polygon>
            <polygon id="Fill-129" points="224.924303 56.1290323 224.924303 84.1935484 224.924303 112.258065 253 112.258065 253 84.1935484 253 56.1290323"></polygon>
            <polygon id="Fill-130" points="224.924927 56.1309032 224.924927 84.1954194 224.924927 112.259935 253.000624 112.259935 253.000624 56.1309032"></polygon>
            <polygon id="Fill-131" points="196.848606 140.322581 224.924303 140.322581 224.924303 112.258065 196.848606 112.258065"></polygon>
            <polygon id="Fill-132" points="196.848606 140.322581 224.924303 140.322581 224.924303 112.258065 196.848606 112.258065"></polygon>
            <polygon id="Fill-133" points="168.772908 168.387097 196.848606 168.387097 196.848606 140.322581 168.772908 140.322581"></polygon>
            <polygon id="Fill-134" points="168.772908 168.387097 196.848606 168.387097 196.848606 140.322581 168.772908 140.322581"></polygon>
            <polygon id="Fill-135" points="140.697211 196.451613 168.772908 196.451613 168.772908 168.387097 140.697211 168.387097"></polygon>
            <polygon id="Fill-136" points="140.697211 196.451613 168.772908 196.451613 168.772908 168.387097 140.697211 168.387097"></polygon>
            <polygon id="Fill-137" points="112.621514 224.516129 140.697211 224.516129 140.697211 196.451613 112.621514 196.451613"></polygon>
            <polygon id="Fill-138" points="112.621514 224.516129 140.697211 224.516129 140.697211 196.451613 112.621514 196.451613"></polygon>
        </g>
    </g>
</svg>