<?xml version="1.0" encoding="UTF-8"?>
<svg width="141px" height="141px" viewBox="0 0 141 141" version="1.1" xmlns="http://www.w3.org/2000/svg" xmlns:xlink="http://www.w3.org/1999/xlink">
    <!-- Generator: Sketch 40.1 (33804) - http://www.bohemiancoding.com/sketch -->
    <title>x</title>
    <desc>Created with Sketch.</desc>
    <defs></defs>
    <g id="Page-1" stroke="none" stroke-width="1" fill="none" fill-rule="evenodd">
        <g id="x" fill="#FDCF1A">
            <polygon id="Fill-3" points="84.7051793 56.7849462 112.780876 56.7849462 112.780876 28.7204301 84.7051793 28.7204301"></polygon>
            <polygon id="Fill-4" points="84.7051793 56.781828 112.780876 56.781828 112.780876 28.7173118 84.7051793 28.7173118"></polygon>
            <polygon id="Fill-5" points="28.5537849 112.913978 56.6294821 112.913978 56.6294821 84.8494624 28.5537849 84.8494624"></polygon>
            <polygon id="Fill-6" points="28.5537849 112.91086 56.6294821 112.91086 56.6294821 84.8463441 28.5537849 84.8463441"></polygon>
            <polygon id="Fill-7" points="0.478087649 140.978495 28.5537849 140.978495 28.5537849 112.913978 0.478087649 112.913978"></polygon>
            <polygon id="Fill-8" points="0.478087649 140.975376 28.5537849 140.975376 28.5537849 112.91086 0.478087649 112.91086"></polygon>
            <polygon id="Fill-9" points="112.780876 28.7204301 140.856574 28.7204301 140.856574 0.655913978 112.780876 0.655913978"></polygon>
            <polygon id="Fill-10" points="112.780876 28.7173118 140.856574 28.7173118 140.856574 0.652795699 112.780876 0.652795699"></polygon>
            <polygon id="Fill-11" points="28.5537849 56.7849462 56.6294821 56.7849462 56.6294821 28.7204301 28.5537849 28.7204301"></polygon>
            <polygon id="Fill-12" points="28.5537849 56.781828 56.6294821 56.781828 56.6294821 28.7173118 28.5537849 28.7173118"></polygon>
            <polygon id="Fill-13" points="56.6294821 84.8494624 84.7051793 84.8494624 84.7051793 56.7849462 56.6294821 56.7849462"></polygon>
            <polygon id="Fill-15" points="84.7051793 112.913978 112.780876 112.913978 112.780876 84.8494624 84.7051793 84.8494624"></polygon>
            <polygon id="Fill-16" points="84.7051793 112.91086 112.780876 112.91086 112.780876 84.8463441 84.7051793 84.8463441"></polygon>
            <polygon id="Fill-17" points="112.780876 140.978495 140.856574 140.978495 140.856574 112.913978 112.780876 112.913978"></polygon>
            <polygon id="Fill-18" points="112.780876 140.975376 140.856574 140.975376 140.856574 112.91086 112.780876 112.91086"></polygon>
            <polygon id="Fill-19" points="0.478087649 28.7204301 28.5537849 28.7204301 28.5537849 0.655913978 0.478087649 0.655913978"></polygon>
            <polygon id="Fill-20" points="0.478087649 28.7173118 28.5537849 28.7173118 28.5537849 0.652795699 0.478087649 0.652795699"></polygon>
        </g>
    </g>
</svg>